<svg xmlns="http://www.w3.org/2000/svg" viewBox="0 0 128 128">
  <!-- Warm paper background -->
  <rect width="128" height="128" rx="28" fill="#f5f1e8"/>

  <!-- Subtle grain -->
  <g fill="#1a1a1a" opacity="0.04">
    <circle cx="20" cy="30" r="0.8"/>
    <circle cx="40" cy="18" r="0.8"/>
    <circle cx="70" cy="25" r="0.8"/>
    <circle cx="100" cy="15" r="0.8"/>
    <circle cx="15" cy="60" r="0.8"/>
    <circle cx="110" cy="55" r="0.8"/>
    <circle cx="25" cy="95" r="0.8"/>
    <circle cx="55" cy="108" r="0.8"/>
    <circle cx="90" cy="100" r="0.8"/>
    <circle cx="115" cy="90" r="0.8"/>
  </g>

  <!-- Coral vermillion seal ring -->
  <circle cx="64" cy="64" r="44" fill="none" stroke="#e85d5d" stroke-width="3.5" opacity="0.95"/>
  <!-- Seal imperfection: tiny gap at top-left -->
  <path d="M 28 42 A 44 44 0 0 1 38 30" fill="none" stroke="#f5f1e8" stroke-width="5"/>

  <!-- Serif A — heavy weight, centered -->
  <g fill="#1a1a1a">
    <path d="M 38 90 L 56 32 L 72 32 L 90 90 L 77 90 L 72.5 75 L 55.5 75 L 51 90 Z M 58 65 L 70 65 L 64 44 Z"/>
  </g>

  <!-- Thin ⇄ glyph below A, coral accent -->
  <g stroke="#e85d5d" stroke-width="2.2" stroke-linecap="round" fill="none">
    <line x1="50" y1="102" x2="78" y2="102"/>
    <path d="M 55 97 L 50 102 L 55 107"/>
    <path d="M 73 97 L 78 102 L 73 107"/>
  </g>
</svg>
